<?xml version="1.0" standalone="no"?>
<!DOCTYPE svg PUBLIC "-//W3C//DTD SVG 20010904//EN"
 "http://www.w3.org/TR/2001/REC-SVG-20010904/DTD/svg10.dtd">
<svg version="1.0" xmlns="http://www.w3.org/2000/svg"
 width="18" height="18" viewBox="0 0 404.556103 618.810681"
 preserveAspectRatio="xMidYMid meet">
<metadata>Created by Svg.la</metadata>
<g transform="translate(-309.433945,735.926011) scale(0.100000,-0.100000)"
fill="#000000" stroke="none">
<path d="M3582 7338 l-82 -20 25 -29 c25 -30 52 -105 76 -214 9 -40 14 -127
13 -260 0 -174 -3 -211 -22 -284 -12 -47 -31 -99 -41 -117 l-20 -33 47 -11
c26 -7 70 -14 98 -17 l51 -5 26 45 c49 83 68 176 74 363 6 184 -3 285 -39 414
-32 117 -74 191 -107 189 -9 0 -53 -10 -99 -21z"/>
<path d="M3386 7163 c-61 -61 -69 -430 -14 -571 25 -63 46 -74 77 -43 35 35
45 96 45 276 1 179 -14 269 -51 320 -18 24 -43 32 -57 18z m32 -317 c5 -52 -4
-72 -23 -56 -9 8 -15 30 -15 57 0 37 3 44 18 41 12 -2 18 -15 20 -42z"/>
<path d="M6716 7028 c9 -31 7 -476 -4 -566 -4 -40 -5 -69 -1 -65 4 5 18 49 30
98 21 79 24 112 24 275 0 154 -4 193 -19 233 -17 46 -44 68 -30 25z"/>
<path d="M5099 6252 c-47 -28 -53 -35 -47 -53 2 -7 11 -7 28 1 23 10 30 7 74
-36 144 -137 382 -160 545 -52 39 26 45 28 53 14 11 -19 38 -21 38 -3 0 19
-80 108 -91 101 -6 -3 -3 -16 6 -31 9 -14 15 -25 13 -26 -2 -1 -17 -12 -34
-24 -92 -64 -277 -71 -396 -16 -37 18 -88 47 -113 66 l-45 35 25 16 c25 16 26
37 2 35 -7 0 -33 -12 -58 -27z"/>
<path d="M4662 5621 c4 -58 8 -74 25 -86 34 -24 127 -44 264 -57 71 -6 129
-15 129 -20 0 -8 43 -11 51 -3 3 2 106 6 230 9 123 3 241 10 262 16 39 12 41
17 31 80 l-6 36 -251 12 c-248 12 -394 27 -572 58 -49 9 -107 18 -128 21 l-39
6 4 -72z"/>
<path d="M3825 5495 c-5 -2 -42 -12 -80 -24 -110 -32 -184 -86 -244 -176 -62
-92 -67 -139 -25 -221 l26 -51 -40 -61 c-49 -76 -153 -288 -176 -359 -13 -38
-23 -53 -36 -53 -13 0 -20 -11 -25 -37 -4 -21 -11 -43 -16 -49 -5 -6 -12 -28
-17 -50 -5 -21 -14 -38 -20 -37 -7 2 -12 -2 -12 -7 0 -6 12 -10 28 -10 15 -1
79 -19 142 -41 63 -22 122 -43 131 -45 12 -4 19 8 29 51 8 35 10 59 4 63 -5 4
-9 39 -9 77 0 60 8 89 53 205 45 112 62 144 103 189 l50 54 40 -22 c45 -25 58
-24 184 16 102 33 148 56 171 87 15 19 25 23 50 19 l31 -5 6 -91 c8 -115 20
-157 53 -191 41 -40 66 -34 93 21 76 156 26 563 -69 563 -23 0 -56 -41 -65
-80 -5 -23 -12 -30 -30 -30 -21 0 -25 6 -30 48 -9 66 -41 173 -61 201 -25 35
-75 51 -156 50 -40 0 -77 -2 -83 -4z m-189 -283 c13 -8 34 -46 34 -61 0 -18
-39 -51 -60 -51 -25 0 -60 34 -60 58 0 40 56 75 86 54z"/>
<path d="M3585 5170 c-12 -37 8 -50 40 -26 16 12 17 16 6 30 -18 22 -38 20
-46 -4z"/>
<path d="M6052 5466 l-32 -15 34 -46 c59 -77 126 -323 126 -462 0 -61 7 -67
99 -79 37 -5 55 -2 72 10 36 25 51 20 102 -32 36 -37 59 -76 105 -182 63 -145
74 -177 63 -185 -23 -13 10 -215 35 -215 2 0 23 9 46 21 34 17 111 48 233 94
l20 7 -20 8 c-13 5 -28 32 -45 80 -19 54 -32 75 -52 86 -15 8 -29 25 -33 42
-7 34 -130 262 -187 347 -35 52 -38 62 -27 80 62 98 60 138 -11 244 -45 67
-68 90 -125 127 -38 24 -92 52 -120 60 -72 23 -241 29 -283 10z m516 -288 c7
-7 12 -26 12 -44 0 -58 -51 -72 -79 -22 -29 51 27 106 67 66z"/>
<path d="M6520 5136 c0 -29 10 -38 29 -27 18 11 10 45 -12 49 -12 3 -17 -3
-17 -22z"/>
<path d="M4592 5228 c-7 -7 -12 -27 -12 -46 0 -32 2 -34 27 -27 35 8 33 5 26
48 -6 38 -20 46 -41 25z"/>
<path d="M6002 5218 c-16 -16 -15 -29 8 -56 27 -33 56 -25 52 13 -6 50 -34 69
-60 43z"/>
<path d="M6036 4672 c6 -4 14 -20 18 -36 5 -21 10 -26 18 -18 18 18 1 62 -25
62 -13 0 -17 -3 -11 -8z"/>
<path d="M4689 4654 c-9 -11 -9 -18 -2 -25 15 -15 47 -7 51 12 4 22 -34 31
-49 13z"/>
<path d="M5180 4408 c-80 -4 -181 -12 -225 -18 -101 -15 -322 -71 -400 -102
l-60 -24 -3 -112 c-3 -108 -3 -112 -25 -113 -12 0 -17 -2 -12 -4 6 -1 29 -8
52 -15 23 -7 49 -9 60 -5 10 5 23 7 30 6 6 -1 14 3 18 9 4 6 12 7 24 1 19 -10
64 -4 57 8 -5 8 -1 8 114 15 78 5 113 9 271 36 30 6 132 9 225 8 93 -1 207 -1
254 0 56 0 78 -2 65 -8 -16 -7 -11 -9 20 -8 22 0 84 -5 137 -11 80 -8 107 -7
148 5 27 8 51 20 51 27 1 7 1 48 0 92 -2 88 3 100 38 100 35 0 37 20 4 33 -62
22 -183 51 -263 63 -120 16 -409 25 -580 17z m-117 -295 c-7 -2 -19 -2 -25 0
-7 3 -2 5 12 5 14 0 19 -2 13 -5z"/>
<path d="M6053 4063 c9 -14 47 -24 47 -12 0 5 -4 9 -9 9 -5 0 -17 3 -27 7 -11
4 -15 3 -11 -4z"/>
<path d="M5948 4043 c7 -3 16 -2 19 1 4 3 -2 6 -13 5 -11 0 -14 -3 -6 -6z"/>
<path d="M6110 4046 c0 -3 17 -31 37 -63 20 -31 36 -63 36 -70 0 -7 7 -13 15
-13 10 0 5 16 -18 58 -28 50 -70 102 -70 88z"/>
<path d="M4355 4020 c-3 -6 1 -7 9 -4 18 7 21 14 7 14 -6 0 -13 -4 -16 -10z"/>
<path d="M6075 3985 c17 -13 34 -24 38 -25 5 0 17 -10 27 -22 10 -13 21 -20
25 -17 10 10 -49 63 -86 76 l-34 13 30 -25z"/>
<path d="M6949 3684 c-36 -8 -84 -20 -105 -28 l-39 -13 0 -69 0 -69 35 2 c19
0 91 7 159 15 102 11 126 16 135 32 8 14 8 20 -1 23 -8 3 -13 22 -13 48 0 68
-6 75 -59 74 -25 0 -76 -7 -112 -15z"/>
<path d="M3105 3626 c-3 -9 -7 -23 -10 -31 -2 -8 0 -17 5 -20 5 -3 8 -30 7
-61 -2 -52 10 -83 27 -66 4 4 76 9 159 12 l152 5 -1 55 c-1 52 -7 91 -17 108
-3 4 -75 9 -161 10 -136 3 -157 2 -161 -12z"/>
<path d="M4401 2871 c-13 -39 -27 -71 -33 -73 -5 -2 -12 -24 -15 -49 l-5 -45
108 -17 c60 -9 119 -20 131 -23 17 -5 22 -1 28 25 3 17 3 41 -1 53 -4 13 -8
33 -8 44 -1 15 -28 42 -89 88 -48 36 -88 66 -90 66 -2 0 -14 -31 -26 -69z"/>
<path d="M5970 2832 c-42 -31 -85 -64 -97 -72 -12 -8 -23 -26 -25 -40 -3 -29
-8 -28 160 -15 l102 8 0 54 c0 37 -4 55 -14 59 -8 3 -18 19 -21 35 -4 16 -12
29 -18 28 -7 0 -46 -26 -87 -57z"/>
<path d="M6010 2530 c-26 -26 -28 -111 -3 -131 15 -12 16 -12 9 6 -28 73 -5
130 57 138 31 4 31 4 -5 5 -26 1 -44 -4 -58 -18z"/>
<path d="M4364 2508 c-37 -18 -46 -114 -14 -143 11 -10 20 -13 20 -8 0 6 -7
16 -15 23 -18 15 -20 59 -4 94 12 26 54 40 97 30 21 -4 24 -3 12 5 -19 13 -68
13 -96 -1z"/>
<path d="M6137 2473 c4 -41 1 -51 -19 -70 -12 -12 -39 -23 -58 -26 l-35 -4 37
-1 c54 -3 90 31 92 86 0 23 -4 46 -10 52 -8 8 -10 -2 -7 -37z"/>
<path d="M4476 2372 l-19 -27 24 22 c12 12 21 24 18 27 -2 2 -13 -8 -23 -22z"/>
<path d="M4398 2343 c12 -2 30 -2 40 0 9 3 -1 5 -23 4 -22 0 -30 -2 -17 -4z"/>
<path d="M5742 2325 c-7 -14 -12 -32 -12 -38 0 -22 100 -127 140 -147 90 -46
204 -33 263 28 22 23 26 33 20 65 l-6 38 -21 -19 c-81 -74 -167 -68 -263 21
-49 44 -92 77 -104 77 -3 0 -11 -11 -17 -25z"/>
<path d="M4220 2256 c-18 -48 -12 -76 23 -108 48 -46 103 -68 172 -68 74 0
117 12 167 46 35 25 38 30 38 75 0 57 -9 60 -57 23 -103 -78 -226 -70 -301 21
l-31 39 -11 -28z"/>
<path d="M6109 1610 c-106 -7 -158 -19 -159 -38 -1 -4 -14 -22 -29 -40 l-29
-34 -64 30 c-69 33 -169 62 -216 62 -22 0 -31 -6 -36 -22 -13 -50 -22 -44 224
-145 74 -30 154 -64 177 -74 110 -50 295 -119 317 -119 56 0 28 22 -131 103
-92 47 -169 89 -171 95 -2 6 12 22 31 36 39 30 146 56 239 59 32 1 58 2 58 3
0 0 -7 15 -15 31 -29 59 -42 62 -196 53z"/>
<path d="M4064 1552 c-3 -9 -14 -38 -25 -64 -10 -26 -19 -49 -19 -51 0 -3 17
1 38 9 45 16 182 18 272 4 69 -11 153 -54 158 -81 2 -9 -26 -56 -61 -105 -62
-86 -64 -89 -40 -92 33 -5 50 12 156 158 106 145 112 168 52 185 -44 13 -57 7
-69 -33 -10 -32 -18 -28 -44 22 -24 44 -24 44 -90 50 -37 4 -125 8 -195 11
-114 4 -129 2 -133 -13z"/>
</g>
</svg>
